<svg width="18" height="22" viewBox="0 0 18 22" fill="none" xmlns="http://www.w3.org/2000/svg">
<path d="M14.9445 2.46193C13.357 0.874409 11.2462 0 9.00118 0C6.75577 0 4.64535 0.874409 3.05783 2.46193C0.119905 5.39942 -0.245198 10.9264 2.26714 14.275L6.53464 20.4379C7.72766 22.1608 10.2746 22.1608 11.4676 20.4378L15.7251 14.2886C18.2476 10.9264 17.8825 5.39942 14.9445 2.46193ZM9.07876 11.3958C7.38736 11.3958 6.01066 10.0191 6.01066 8.3277C6.01066 6.6363 7.38736 5.2596 9.07876 5.2596C10.7702 5.2596 12.1469 6.6363 12.1469 8.3277C12.1469 10.0191 10.7702 11.3958 9.07876 11.3958Z" fill="#576077"/>
</svg>
