<svg width="20" height="19" viewBox="0 0 20 19" fill="none" xmlns="http://www.w3.org/2000/svg">
<path d="M14.939 0.695312C16.28 0.695312 17.57 1.22531 18.519 2.17631C19.469 3.12531 20 4.40531 20 5.74531V13.6453C20 16.4353 17.73 18.6953 14.939 18.6953H5.06C2.269 18.6953 0 16.4353 0 13.6453V5.74531C0 2.95531 2.259 0.695312 5.06 0.695312H14.939ZM16.07 5.89531C15.86 5.88431 15.66 5.95531 15.509 6.09531L11 9.69531C10.42 10.1763 9.589 10.1763 9 9.69531L4.5 6.09531C4.189 5.86531 3.759 5.89531 3.5 6.16531C3.23 6.43531 3.2 6.86531 3.429 7.16531L3.56 7.29531L8.11 10.8453C8.67 11.2853 9.349 11.5253 10.06 11.5253C10.769 11.5253 11.46 11.2853 12.019 10.8453L16.53 7.23531L16.61 7.15531C16.849 6.86531 16.849 6.44531 16.599 6.15531C16.46 6.00631 16.269 5.91531 16.07 5.89531Z" fill="#576077"/>
</svg>
