<svg width="20" height="20" viewBox="0 0 20 20" fill="none" xmlns="http://www.w3.org/2000/svg">
<path d="M12.4183 3.49012C11.9423 3.40218 11.5051 3.70597 11.4144 4.17065C11.3238 4.63533 11.6286 5.08902 12.0916 5.17996C13.4859 5.45177 14.5625 6.53103 14.8354 7.93007C14.913 8.33279 15.2676 8.62659 15.6759 8.62659C15.7307 8.62659 15.7854 8.62159 15.8412 8.6116C16.3043 8.51866 16.6091 8.06598 16.5184 7.6003C16.1111 5.51073 14.5027 3.89684 12.4183 3.49012Z" fill="#576077"/>
<path d="M12.3561 0.00792976C12.133 -0.0240483 11.9089 0.0419064 11.7307 0.183809C11.5474 0.32771 11.4329 0.535567 11.408 0.768407C11.3552 1.23908 11.6948 1.66479 12.1649 1.71776C15.4065 2.07951 17.9262 4.60477 18.2907 7.85654C18.3395 8.29224 18.705 8.62101 19.1412 8.62101C19.174 8.62101 19.2059 8.61901 19.2388 8.61502C19.4668 8.59004 19.67 8.47711 19.8134 8.29724C19.9558 8.11736 20.0205 7.89351 19.9946 7.66467C19.5405 3.60746 16.4004 0.45862 12.3561 0.00792976Z" fill="#576077"/>
<path fill-rule="evenodd" clip-rule="evenodd" d="M9.03174 10.9724C13.0208 14.9604 13.9258 10.3467 16.4656 12.8848C18.9143 15.3328 20.3216 15.8232 17.2192 18.9247C16.8306 19.237 14.3616 22.9943 5.6846 14.3197C-2.99348 5.64402 0.761585 3.17246 1.07397 2.78397C4.18387 -0.326138 4.66586 1.0894 7.11449 3.53734C9.65436 6.07651 5.04266 6.98443 9.03174 10.9724Z" fill="#576077"/>
</svg>
